<?xml version="1.0" encoding="utf-8"?>
<svg viewBox="0 182.131 1000 133.333" xmlns="http://www.w3.org/2000/svg">
  <path fill-opacity="1" d="M 0 184.536 C 0 184.536 93.557 234.516 200 224.725 C 300 215.526 382.228 202.752 400 200 C 500 184.516 482.596 188.827 500 188.832 C 516.295 188.837 500 184.536 600 200 C 614.002 202.165 710.354 217.917 800 226.412 C 877.726 233.778 1001.493 182.464 1000 183.677 L 1000 315.636 L 958.33 315.636 C 916.67 315.636 833.33 315.636 750 315.636 C 666.67 315.636 583.33 315.636 500 315.636 C 416.67 315.636 333.33 315.636 250 315.636 C 166.67 315.636 83.33 315.636 41.67 315.636 L 0 315.636 L 0 184.536 Z" style="fill: white"/>
</svg>